REM DIRINDEX 1\2,1\3,1\4
REM DIRNAME cjc151,folder01,folder02,folder03
TITLE ""
FILE "078 078_TOEFL_3900.mp3" MP3
  TRACK 01 AUDIO
    TITLE "2:cjc151_3383"
    INDEX 01 00:00:00
  TRACK 02 AUDIO
    TITLE "0:"
    INDEX 01 00:01:19
  TRACK 03 AUDIO
    TITLE "3:cjc151_3384"
    INDEX 01 00:02:71
  TRACK 04 AUDIO
    TITLE "0:"
    INDEX 01 00:06:53
  TRACK 05 AUDIO
    TITLE "2:cjc151_3385"
    INDEX 01 00:08:48
  TRACK 06 AUDIO
    TITLE "0:"
    INDEX 01 00:09:65
  TRACK 07 AUDIO
    TITLE "3:cjc151_3386"
    INDEX 01 00:11:46
  TRACK 08 AUDIO
    TITLE "0:"
    INDEX 01 00:15:40
  TRACK 09 AUDIO
    TITLE "2:cjc151_3387"
    INDEX 01 00:17:18
  TRACK 10 AUDIO
    TITLE "0:"
    INDEX 01 00:18:31
  TRACK 11 AUDIO
    TITLE "3:cjc151_3388"
    INDEX 01 00:20:08
  TRACK 12 AUDIO
    TITLE "0:"
    INDEX 01 00:24:49
  TRACK 13 AUDIO
    TITLE "2:cjc151_3389"
    INDEX 01 00:26:32
  TRACK 14 AUDIO
    TITLE "0:"
    INDEX 01 00:27:28
  TRACK 15 AUDIO
    TITLE "3:cjc151_3390"
    INDEX 01 00:29:05
  TRACK 16 AUDIO
    TITLE "0:"
    INDEX 01 00:33:03
  TRACK 17 AUDIO
    TITLE "2:cjc151_3391"
    INDEX 01 00:34:55
  TRACK 18 AUDIO
    TITLE "0:"
    INDEX 01 00:35:66
  TRACK 19 AUDIO
    TITLE "3:cjc151_3392"
    INDEX 01 00:37:46
  TRACK 20 AUDIO
    TITLE "0:"
    INDEX 01 00:41:36
  TRACK 21 AUDIO
    TITLE "2:cjc151_3393"
    INDEX 01 00:43:15
  TRACK 22 AUDIO
    TITLE "0:"
    INDEX 01 00:44:20
  TRACK 23 AUDIO
    TITLE "3:cjc151_3394"
    INDEX 01 00:45:73
  TRACK 24 AUDIO
    TITLE "0:"
    INDEX 01 00:49:31
  TRACK 25 AUDIO
    TITLE "2:cjc151_3395"
    INDEX 01 00:51:11
  TRACK 26 AUDIO
    TITLE "0:"
    INDEX 01 00:52:18
  TRACK 27 AUDIO
    TITLE "3:cjc151_3396"
    INDEX 01 00:53:70
  TRACK 28 AUDIO
    TITLE "0:"
    INDEX 01 00:57:68
  TRACK 29 AUDIO
    TITLE "2:cjc151_3397"
    INDEX 01 00:59:47
  TRACK 30 AUDIO
    TITLE "0:"
    INDEX 01 01:01:60
  TRACK 31 AUDIO
    TITLE "3:cjc151_3398"
    INDEX 01 01:03:37
  TRACK 32 AUDIO
    TITLE "0:"
    INDEX 01 01:06:69
  TRACK 33 AUDIO
    TITLE "2:cjc151_3399"
    INDEX 01 01:08:48
  TRACK 34 AUDIO
    TITLE "0:"
    INDEX 01 01:09:57
  TRACK 35 AUDIO
    TITLE "3:cjc151_3400"
    INDEX 01 01:11:35
  TRACK 36 AUDIO
    TITLE "0:"
    INDEX 01 01:14:68
  TRACK 37 AUDIO
    TITLE "2:cjc151_3401"
    INDEX 01 01:16:46
  TRACK 38 AUDIO
    TITLE "0:"
    INDEX 01 01:17:47
  TRACK 39 AUDIO
    TITLE "3:cjc151_3402"
    INDEX 01 01:19:27
  TRACK 40 AUDIO
    TITLE "0:"
    INDEX 01 01:22:72
  TRACK 41 AUDIO
    TITLE "2:cjc151_3403"
    INDEX 01 01:24:51
  TRACK 42 AUDIO
    TITLE "0:"
    INDEX 01 01:25:47
  TRACK 43 AUDIO
    TITLE "3:cjc151_3404"
    INDEX 01 01:27:26
  TRACK 44 AUDIO
    TITLE "0:"
    INDEX 01 01:31:18
  TRACK 45 AUDIO
    TITLE "2:cjc151_3405"
    INDEX 01 01:32:68
  TRACK 46 AUDIO
    TITLE "0:"
    INDEX 01 01:34:12
  TRACK 47 AUDIO
    TITLE "3:cjc151_3406"
    INDEX 01 01:35:67
  TRACK 48 AUDIO
    TITLE "0:"
    INDEX 01 01:39:41
  TRACK 49 AUDIO
    TITLE "2:cjc151_3407"
    INDEX 01 01:41:20
  TRACK 50 AUDIO
    TITLE "0:"
    INDEX 01 01:42:33
  TRACK 51 AUDIO
    TITLE "3:cjc151_3408"
    INDEX 01 01:44:13
  TRACK 52 AUDIO
    TITLE "0:"
    INDEX 01 01:47:74
  TRACK 53 AUDIO
    TITLE "2:cjc151_3409"
    INDEX 01 01:49:53
  TRACK 54 AUDIO
    TITLE "0:"
    INDEX 01 01:50:72
  TRACK 55 AUDIO
    TITLE "3:cjc151_3410"
    INDEX 01 01:52:51
  TRACK 56 AUDIO
    TITLE "0:"
    INDEX 01 01:56:34
  TRACK 57 AUDIO
    TITLE "2:cjc151_3411"
    INDEX 01 01:58:19
  TRACK 58 AUDIO
    TITLE "0:"
    INDEX 01 01:59:32
  TRACK 59 AUDIO
    TITLE "3:cjc151_3412"
    INDEX 01 02:01:11
  TRACK 60 AUDIO
    TITLE "0:"
    INDEX 01 02:05:05
  TRACK 61 AUDIO
    TITLE "2:cjc151_3413"
    INDEX 01 02:06:59
  TRACK 62 AUDIO
    TITLE "0:"
    INDEX 01 02:07:63
  TRACK 63 AUDIO
    TITLE "3:cjc151_3414"
    INDEX 01 02:09:40
  TRACK 64 AUDIO
    TITLE "0:"
    INDEX 01 02:13:30
  TRACK 65 AUDIO
    TITLE "2:cjc151_3415"
    INDEX 01 02:15:07
  TRACK 66 AUDIO
    TITLE "0:"
    INDEX 01 02:16:07
  TRACK 67 AUDIO
    TITLE "3:cjc151_3416"
    INDEX 01 02:17:61
  TRACK 68 AUDIO
    TITLE "0:"
    INDEX 01 02:21:63
  TRACK 69 AUDIO
    TITLE "2:cjc151_3417"
    INDEX 01 02:23:40
  TRACK 70 AUDIO
    TITLE "0:"
    INDEX 01 02:24:38
  TRACK 71 AUDIO
    TITLE "3:cjc151_3418"
    INDEX 01 02:26:17
  TRACK 72 AUDIO
    TITLE "0:"
    INDEX 01 02:30:52
  TRACK 73 AUDIO
    TITLE "2:cjc151_3419"
    INDEX 01 02:32:33
  TRACK 74 AUDIO
    TITLE "0:"
    INDEX 01 02:33:58
  TRACK 75 AUDIO
    TITLE "3:cjc151_3420"
    INDEX 01 02:35:38
  TRACK 76 AUDIO
    TITLE "0:"
    INDEX 01 02:39:29
  TRACK 77 AUDIO
    TITLE "2:cjc151_3421"
    INDEX 01 02:41:09
  TRACK 78 AUDIO
    TITLE "0:"
    INDEX 01 02:42:10
  TRACK 79 AUDIO
    TITLE "3:cjc151_3422"
    INDEX 01 02:43:63
  TRACK 80 AUDIO
    TITLE "0:"
    INDEX 01 02:47:23
  TRACK 81 AUDIO
    TITLE "2:cjc151_3423"
    INDEX 01 02:49:00
  TRACK 82 AUDIO
    TITLE "0:"
    INDEX 01 02:50:02
  TRACK 83 AUDIO
    TITLE "3:cjc151_3424"
    INDEX 01 02:51:58
  TRACK 84 AUDIO
    TITLE "0:"
    INDEX 01 02:55:09
  TRACK 85 AUDIO
    TITLE "2:cjc151_3425"
    INDEX 01 02:56:69
  TRACK 86 AUDIO
    TITLE "0:"
    INDEX 01 02:58:07
  TRACK 87 AUDIO
    TITLE "3:cjc151_3426"
    INDEX 01 02:59:62
  TRACK 88 AUDIO
    TITLE "0:"
    INDEX 01 03:03:55
